<svg width="24" height="24" viewBox="0 0 24 24" fill="none" xmlns="http://www.w3.org/2000/svg">
<path d="M15.0498 12.8098L6.55979 4.31979C6.46727 4.22708 6.35739 4.15354 6.23641 4.10336C6.11544 4.05317 5.98576 4.02734 5.85479 4.02734C5.72382 4.02734 5.59414 4.05317 5.47316 4.10336C5.35219 4.15354 5.2423 4.22708 5.14979 4.31979L2.31979 7.14979C2.22708 7.2423 2.15354 7.35219 2.10336 7.47316C2.05317 7.59414 2.02734 7.72382 2.02734 7.85479C2.02734 7.98576 2.05317 8.11544 2.10336 8.23641C2.15354 8.35739 2.22708 8.46727 2.31979 8.55979L10.8098 17.0498C11.1998 17.4398 11.8298 17.4398 12.2198 17.0498L15.0498 14.2198C15.1425 14.1273 15.216 14.0174 15.2662 13.8964C15.3164 13.7754 15.3422 13.6458 15.3422 13.5148C15.3422 13.3838 15.3164 13.2541 15.2662 13.1332C15.216 13.0122 15.1425 12.9023 15.0498 12.8098ZM14.3398 17.7598L17.8698 21.2898C18.2598 21.6798 18.8998 21.6798 19.2898 21.2898C19.6798 20.8998 19.6798 20.2598 19.2898 19.8698L15.7598 16.3398L14.3398 17.7598Z" fill="black"/>
<path d="M18.5 9C20.433 9 22 7.433 22 5.5C22 3.567 20.433 2 18.5 2C16.567 2 15 3.567 15 5.5C15 7.433 16.567 9 18.5 9Z" fill="black"/>
</svg>
