<svg width="48" height="48" viewBox="0 0 48 48" fill="none" xmlns="http://www.w3.org/2000/svg">
<path d="M47.3334 5.33366L42.6668 0.666992C39.9834 2.16033 36.6001 3.00033 33.3334 3.00033C30.0667 3.00033 26.6601 2.13699 24.0001 0.666992C21.3401 2.13699 17.9334 3.00033 14.6667 3.00033C11.4001 3.00033 8.01675 2.16033 5.33342 0.666992L0.666748 5.33366C0.666748 5.33366 5.33342 10.0003 5.33342 14.667C5.33342 19.3337 0.666748 28.667 0.666748 33.3337C0.666748 42.667 24.0001 47.3337 24.0001 47.3337C24.0001 47.3337 47.3334 42.667 47.3334 33.3337C47.3334 28.667 42.6668 19.3337 42.6668 14.667C42.6668 10.0003 47.3334 5.33366 47.3334 5.33366ZM31.1168 34.3837L23.9301 30.0437L16.7667 34.3837L18.6801 26.217L12.3334 20.757L20.6867 20.0337L23.9301 12.3337L27.1967 20.0103L35.5501 20.7337L29.2034 26.1937L31.1168 34.3837Z" fill="#D4AF37"/>
</svg>
