<svg width="18" height="19" viewBox="0 0 18 19" fill="none" xmlns="http://www.w3.org/2000/svg">
<mask id="mask0_414_4917" style="mask-type:alpha" maskUnits="userSpaceOnUse" x="2" y="0" width="15" height="15">
<path fill-rule="evenodd" clip-rule="evenodd" d="M2.25 0.791748H16.1227V14.5256H2.25V0.791748Z" fill="white"/>
</mask>
<g mask="url(#mask0_414_4917)">
<path fill-rule="evenodd" clip-rule="evenodd" d="M9.18525 1.97925C6.564 1.97925 4.737 4.14683 4.737 6.09196C4.737 7.73783 4.30425 8.49862 3.92175 9.16996C3.615 9.70908 3.37275 10.135 3.37275 11.0605C3.498 12.5535 4.43175 13.3381 9.18525 13.3381C13.9125 13.3381 14.8755 12.5187 15 11.009C14.9977 10.135 14.7555 9.70908 14.4487 9.16996C14.0662 8.49862 13.6335 7.73783 13.6335 6.09196C13.6335 4.14683 11.8065 1.97925 9.18525 1.97925ZM9.18526 14.5256C5.67826 14.5256 2.50876 14.2643 2.25001 11.1111C2.24776 9.80646 2.62501 9.14304 2.95801 8.55879C3.29476 7.96662 3.61201 7.4085 3.61201 6.09196C3.61201 3.5325 5.85151 0.791748 9.18526 0.791748C12.519 0.791748 14.7585 3.5325 14.7585 6.09196C14.7585 7.4085 15.0758 7.96662 15.4125 8.55879C15.7455 9.14304 16.1228 9.80646 16.1228 11.0605C15.861 14.2643 12.6923 14.5256 9.18526 14.5256Z" fill="#1D1617"/>
</g>
<path fill-rule="evenodd" clip-rule="evenodd" d="M9.14876 17.8125H9.14726C8.30651 17.8117 7.51076 17.4206 6.90701 16.7105C6.69926 16.4674 6.71801 16.0914 6.94901 15.8729C7.18001 15.6528 7.53551 15.6726 7.74326 15.9172C8.13176 16.374 8.63051 16.625 9.14801 16.625H9.14876C9.66851 16.625 10.1695 16.374 10.5588 15.9164C10.7673 15.6734 11.1228 15.6536 11.353 15.8729C11.584 16.0922 11.6028 16.4682 11.395 16.7113C10.789 17.4214 9.99176 17.8125 9.14876 17.8125Z" fill="#1D1617"/>
<circle cx="12.5" cy="2.5" r="2.5" fill="#F7F8F8"/>
<circle cx="12.5" cy="2.5" r="1.5" fill="#FF0000"/>
</svg>
