<svg width="100" height="100" viewBox="0 0 100 100" fill="none" xmlns="http://www.w3.org/2000/svg">
<path d="M99.1667 9.91667L89.25 0C83.5479 3.17333 76.3583 4.95833 69.4167 4.95833C62.475 4.95833 55.2358 3.12375 49.5833 0C43.9308 3.12375 36.6917 4.95833 29.75 4.95833C22.8083 4.95833 15.6188 3.17333 9.91667 0L0 9.91667C0 9.91667 9.91667 19.8333 9.91667 29.75C9.91667 39.6667 0 59.5 0 69.4167C0 89.25 49.5833 99.1667 49.5833 99.1667C49.5833 99.1667 99.1667 89.25 99.1667 69.4167C99.1667 59.5 89.25 39.6667 89.25 29.75C89.25 19.8333 99.1667 9.91667 99.1667 9.91667ZM64.7063 71.6479L49.4346 62.4254L34.2125 71.6479L38.2783 54.2938L24.7917 42.6913L42.5425 41.1542L49.4346 24.7917L56.3763 41.1046L74.1271 42.6417L60.6404 54.2442L64.7063 71.6479Z" fill="#D4AF37"/>
</svg>
