<svg width="20" height="18" viewBox="0 0 20 18" fill="none" xmlns="http://www.w3.org/2000/svg">
<path fill-rule="evenodd" clip-rule="evenodd" d="M8 14.1997C3.58172 14.1997 0 11.0955 0 7.26634C0 3.43717 3.58172 0.333008 8 0.333008C12.4183 0.333008 16 3.43717 16 7.26634C16 8.86861 15.3729 10.3439 14.3198 11.518L19.7071 16.187L18.2928 17.4126L12.9055 12.7436C11.5509 13.6562 9.84866 14.1997 8 14.1997ZM14 7.26642C14 10.1383 11.3137 12.4664 8 12.4664C4.68629 12.4664 2 10.1383 2 7.26642C2 4.39454 4.68629 2.06642 8 2.06642C11.3137 2.06642 14 4.39454 14 7.26642Z" fill="#D5DDE0"/>
</svg>
