<svg width="20" height="21" viewBox="0 0 20 21" fill="none" xmlns="http://www.w3.org/2000/svg">
<path fill-rule="evenodd" clip-rule="evenodd" d="M17.3387 6.89846L16.82 5.97766C16.3812 5.19853 15.4087 4.92975 14.6461 5.37681V5.37681C14.2831 5.59559 13.8499 5.65766 13.4421 5.54933C13.0342 5.44101 12.6853 5.17118 12.4722 4.79936C12.3351 4.56302 12.2614 4.29384 12.2586 4.01903V4.01903C12.271 3.57843 12.1085 3.15148 11.8082 2.83542C11.5078 2.51937 11.0952 2.34113 10.6644 2.34131H9.61938C9.19727 2.3413 8.79256 2.51338 8.4948 2.81946C8.19704 3.12554 8.03078 3.54038 8.03281 3.97221V3.97221C8.02029 4.86377 7.3102 5.57979 6.4386 5.57969C6.16997 5.57684 5.90684 5.50147 5.67583 5.3612V5.3612C4.91318 4.91415 3.94072 5.18293 3.50191 5.96206L2.94509 6.89846C2.5068 7.67662 2.76596 8.67083 3.5248 9.12241V9.12241C4.01805 9.41374 4.32191 9.95215 4.32191 10.5348C4.32191 11.1175 4.01805 11.6559 3.5248 11.9472V11.9472C2.76693 12.3958 2.50749 13.3876 2.94509 14.1634V14.1634L3.4714 15.092C3.677 15.4715 4.02197 15.7516 4.42996 15.8702C4.83795 15.9888 5.27533 15.9362 5.64531 15.724V15.724C6.00903 15.5069 6.44245 15.4474 6.84925 15.5588C7.25604 15.6702 7.60249 15.9432 7.8116 16.3171C7.94871 16.5534 8.02239 16.8226 8.02518 17.0974V17.0974C8.02518 17.9981 8.73893 18.7283 9.61938 18.7283H10.6644C11.5419 18.7283 12.2544 18.0029 12.2586 17.1052V17.1052C12.2565 16.672 12.4239 16.256 12.7233 15.9497C13.0227 15.6434 13.4294 15.4722 13.8528 15.4743C14.1208 15.4817 14.3828 15.5567 14.6156 15.6928V15.6928C15.3762 16.1412 16.3481 15.8761 16.7895 15.0998V15.0998L17.3387 14.1634C17.5513 13.7901 17.6096 13.3455 17.5008 12.9281C17.392 12.5107 17.125 12.1548 16.759 11.9394V11.9394C16.3929 11.724 16.1259 11.3682 16.0171 10.9507C15.9083 10.5333 15.9667 10.0887 16.1793 9.71546C16.3175 9.46855 16.5176 9.26383 16.759 9.12241V9.12241C17.5133 8.67108 17.7718 7.68267 17.3387 6.90626V6.90626V6.89846Z" stroke="url(#paint0_linear_905_3004)" stroke-width="1.2" stroke-linecap="round" stroke-linejoin="round"/>
<ellipse cx="10.1455" cy="10.535" rx="2.1968" ry="2.24736" stroke="url(#paint1_linear_905_3004)" stroke-width="1.2" stroke-linecap="round" stroke-linejoin="round"/>
<defs>
<linearGradient id="paint0_linear_905_3004" x1="17.5544" y1="18.7283" x2="-2.22228" y2="17.3441" gradientUnits="userSpaceOnUse">
<stop stop-color="#92A3FD"/>
<stop offset="1" stop-color="#9DCEFF"/>
</linearGradient>
<linearGradient id="paint1_linear_905_3004" x1="12.3423" y1="12.7823" x2="6.48502" y2="12.3393" gradientUnits="userSpaceOnUse">
<stop stop-color="#92A3FD"/>
<stop offset="1" stop-color="#9DCEFF"/>
</linearGradient>
</defs>
</svg>
