<svg width="32" height="32" viewBox="0 0 32 32" fill="none" xmlns="http://www.w3.org/2000/svg">
<path d="M7.58551 10.1592C7.96658 10.1592 8.27551 9.78622 8.27551 9.32616C8.27551 8.86611 7.96658 8.49316 7.58551 8.49316C7.20443 8.49316 6.89551 8.86611 6.89551 9.32616C6.89551 9.78622 7.20443 10.1592 7.58551 10.1592Z" fill="black"/>
<path d="M30.25 22.4315C29.6745 21.526 28.8015 20.3215 28.1185 20.1325C27.7415 19.8525 27.159 19.6275 26.535 19.393L26.217 19.272C26.2255 19.0205 26.148 18.8385 25.976 18.718C24.924 17.9835 23.857 16.8975 22.832 15.676C22.8595 15.604 22.8755 15.526 22.8755 15.442C22.8755 15.1265 22.663 14.871 22.4015 14.871C22.326 14.871 22.257 14.8775 22.1825 14.8785C21.8835 14.4991 21.5911 14.1146 21.3055 13.725C21.3545 13.6355 21.39 13.534 21.39 13.419C21.39 13.103 21.1775 12.8475 20.9165 12.8475C20.892 12.8475 20.8065 12.848 20.676 12.853C20.3427 12.3799 20.0149 11.9031 19.6925 11.4225C19.713 11.359 19.7265 11.2915 19.7265 11.22C19.7265 10.904 19.5145 10.648 19.2535 10.648C19.228 10.648 19.205 10.65 19.1805 10.65C18.8768 10.1863 18.5756 9.72099 18.277 9.254C18.292 9.1975 18.3065 9.1395 18.3065 9.0775C18.3065 8.762 18.0935 8.5065 17.833 8.5065L17.8 8.5075C16.582 6.6055 16.3605 6.3185 16.023 6.3185C15.8 6.3185 15.593 6.3335 15.3915 6.354C15.3155 6.2175 15.238 6.085 15.1625 5.9465C14.927 5.5155 14.424 5 13.3695 5C11.772 5 9.58 6.1865 8.2935 6.979C7.074 6.4615 6.037 6.1935 5.2205 6.1935C4.387 6.1935 3.999 6.465 3.8365 6.6295C3.8265 6.638 3.8145 6.643 3.805 6.653C2.906 7.635 2.3275 9.471 1.956 11.2895C1.364 13.173 1.2995 14.7065 1.309 15.4135C1.27233 15.4564 1.24078 15.5033 1.215 15.5535C0.869502 16.271 0.940002 19.0555 1.426 19.66C2.6725 21.2165 3.948 22.2255 5.2985 23.294C6.826 24.5025 8.405 25.752 10.261 27.9795C11.86 29.8995 15.189 31 19.3955 31C24.9995 31 31 29.0105 31 26.05C31 22.791 30.6485 22.447 30.25 22.4315ZM29.6995 22.9345C28.616 24.615 23.5855 25.521 19.1565 25.521C17.678 25.521 16.373 25.419 15.4805 25.233C14.2445 24.9755 13.08 24.5495 11.988 24.0225C13.0135 22.6805 14.8695 22.472 16.7605 22.472C17.495 22.472 18.253 22.505 19.0565 22.541C19.877 22.577 20.7255 22.614 21.5645 22.614C23.5895 22.614 26.139 22.413 28.0465 20.8785C28.388 21.0845 29.0665 21.931 29.6995 22.9345ZM23.7525 18.351C24.042 18.653 24.315 18.9395 24.5495 19.195C24.87 19.545 25.554 19.8025 26.277 20.075C26.651 20.216 27.0275 20.3605 27.325 20.507C25.643 21.711 23.4845 21.8855 21.5645 21.8855C20.781 21.8855 19.983 21.8515 19.206 21.817C19.2045 21.0205 19.0885 20.2105 18.892 19.7145C20.0255 19.0485 21.655 18.407 23.7525 18.351ZM21.5715 16.041C21.9529 16.4573 22.3384 16.8698 22.728 17.2785C20.836 17.492 19.3525 18.1315 18.2945 18.784C17.9237 18.2613 17.5501 17.7406 17.1735 17.222C18.175 16.668 19.6075 16.1565 21.5715 16.041ZM20.625 14.983C18.8165 15.2075 17.474 15.7505 16.5135 16.326C16.2115 15.917 15.915 15.521 15.626 15.1395C17.087 14.438 18.7635 14.164 19.831 14.058C20.101 14.3795 20.3645 14.685 20.625 14.983ZM14.9425 14.2495C14.5813 13.784 14.2154 13.3222 13.845 12.864C14.898 12.409 16.317 11.9805 18.0795 11.842C18.3735 12.2355 18.6737 12.6244 18.98 13.0085C17.8065 13.178 16.2865 13.529 14.9425 14.2495ZM19.065 11.797C19.2855 12.127 19.513 12.462 19.748 12.801C19.483 12.4709 19.2225 12.1372 18.9665 11.8C18.9995 11.799 19.0315 11.797 19.065 11.797ZM17.666 9.654C17.874 9.9785 18.093 10.3185 18.325 10.676C18.264 10.679 18.206 10.686 18.1455 10.69C17.9023 10.3499 17.6635 10.0067 17.429 9.6605C17.509 9.6585 17.5855 9.655 17.666 9.654ZM13.1035 11.969C12.7575 11.5575 12.4053 11.1513 12.047 10.7505C13.127 10.283 14.628 9.839 16.5755 9.6985C16.8185 10.0655 17.062 10.423 17.305 10.769C15.5325 10.989 14.1295 11.4795 13.1035 11.969ZM15.9215 7.0495C16.0985 7.2315 16.499 7.8365 16.9475 8.5315C16.8635 8.5355 16.779 8.539 16.6965 8.544C16.3851 8.05429 16.0831 7.5587 15.7905 7.0575C15.835 7.056 15.8755 7.0505 15.9215 7.0495ZM13.3695 5.729C13.9345 5.729 14.311 5.9145 14.52 6.296C14.9494 7.08109 15.4014 7.85358 15.8755 8.6125C13.8475 8.833 12.3185 9.37 11.244 9.894C10.192 8.8065 9.303 8.056 8.5845 7.66C9.7895 6.91 11.916 5.729 13.3695 5.729ZM4.3855 7.11C4.4625 7.055 4.7 6.922 5.22 6.922C5.623 6.922 6.268 7.0095 7.2135 7.3405C5.9445 7.4835 5.2425 8.4795 4.6765 9.3015C4.3125 9.8285 3.9705 10.326 3.6505 10.343C3.4545 10.093 3.8045 8.5645 4.3855 7.11ZM2.908 10.3905C2.934 10.5305 2.978 10.6525 3.043 10.7495C3.177 10.947 3.385 11.0545 3.629 11.0545C4.356 11.0545 4.8045 10.4035 5.2795 9.7135C5.8475 8.8905 6.434 8.0395 7.52 8.0395C8.127 8.0395 9.177 8.8175 10.5675 10.249C10.22 10.45 9.9525 10.6335 9.7505 10.783C9.69454 10.7642 9.63603 10.7541 9.577 10.753C9.1955 10.753 8.8865 11.126 8.8865 11.586C8.8865 12.046 9.1955 12.419 9.577 12.419C9.911 12.419 10.1895 12.1325 10.2535 11.7515C10.6005 11.5 10.9663 11.2753 11.3475 11.0795C11.7146 11.4858 12.0745 11.8985 12.427 12.3175C12.1063 12.4958 11.7958 12.692 11.497 12.905C11.4378 12.8837 11.3754 12.8724 11.3125 12.8715C10.9315 12.8715 10.6225 13.244 10.6225 13.7045C10.6225 14.165 10.9315 14.5375 11.3125 14.5375C11.641 14.5375 11.9145 14.2595 11.9845 13.888C12.3559 13.6267 12.7456 13.3925 13.1505 13.187C13.522 13.6415 13.907 14.122 14.3035 14.631C13.8947 14.9009 13.5185 15.2171 13.1825 15.5735C13.164 15.5715 13.1465 15.567 13.1275 15.567C12.745 15.567 12.4365 15.94 12.4365 16.4C12.4365 16.8595 12.745 17.233 13.1275 17.233C13.501 17.233 13.8045 16.872 13.8145 16.423C14.1557 16.0624 14.5444 15.75 14.97 15.4945C15.2725 15.8915 15.582 16.302 15.8985 16.727C15.533 16.9902 15.1945 17.289 14.888 17.619C14.8725 17.618 14.8575 17.6135 14.842 17.6135C14.4615 17.6135 14.152 17.987 14.152 18.447C14.152 18.9065 14.4615 19.28 14.842 19.28C15.219 19.28 15.523 18.915 15.5305 18.4625C15.8374 18.1415 16.1779 17.8544 16.546 17.606C16.9297 18.1318 17.3099 18.6601 17.6865 19.191C17.344 19.4357 17.0189 19.7038 16.7135 19.9935C16.6815 19.988 16.65 19.982 16.6175 19.982C16.2355 19.982 15.927 20.3555 15.927 20.815C15.927 21.275 16.2355 21.648 16.6175 21.648C16.9745 21.648 17.266 21.3175 17.3 20.8955C17.6052 20.6102 17.9309 20.3476 18.2745 20.11C18.42 20.522 18.482 21.166 18.479 21.787C17.9069 21.7605 17.3342 21.7457 16.7615 21.7425C14.6135 21.7425 12.5 22.001 11.323 23.687C8.195 22.0135 5.741 19.534 4.1335 17.716C4.1695 16.094 3.7685 15.0805 3.367 14.111C3.032 13.3 2.716 12.532 2.682 11.405C2.7495 11.0645 2.824 10.7235 2.908 10.3905ZM2.6895 14.3885C2.996 15.129 3.285 15.851 3.3785 16.8445C3.246 16.688 3.122 16.5405 3.008 16.4045C2.5025 15.8035 2.2355 15.4915 2.0405 15.3375C2.04293 14.6168 2.10953 13.8978 2.2395 13.189C2.3705 13.6185 2.5315 14.007 2.6895 14.3885ZM19.3955 30.271C15.407 30.271 12.2835 29.266 10.824 27.5145C8.9195 25.228 7.2375 23.8975 5.7535 22.723C4.4365 21.6815 3.193 20.697 1.9975 19.206C1.7535 18.883 1.654 16.891 1.798 16.117C1.971 16.3075 2.2115 16.593 2.4465 16.873C4.394 19.191 8.955 24.618 15.3315 25.9465C16.271 26.142 17.63 26.2495 19.1565 26.2495C22.5825 26.2495 28.3975 25.667 30.144 23.574C30.2065 23.988 30.268 24.7305 30.268 26.049C30.268 28.259 25.0855 30.271 19.3955 30.271Z" fill="black"/>
</svg>
