<svg width="16" height="22" viewBox="0 0 16 22" fill="none" xmlns="http://www.w3.org/2000/svg">
<path d="M9.5 0C9.5 0 10.24 2.711 10.24 4.91049C10.24 7.0179 8.89 8.72634 6.83 8.72634C4.76 8.72634 3.2 7.0179 3.2 4.91049L3.23 4.5422C1.21 6.99744 0 10.179 0 13.6368C0 18.1586 3.58 21.821 8 21.821C12.42 21.821 16 18.1586 16 13.6368C16 8.12276 13.41 3.20205 9.5 0ZM7.71 18.7519C5.93 18.7519 4.49 17.3197 4.49 15.5396C4.49 13.8824 5.54 12.7161 7.3 12.3478C9.07 11.9795 10.9 11.11 11.92 9.70844C12.31 11.0281 12.51 12.4194 12.51 13.8414C12.51 16.5524 10.36 18.7519 7.71 18.7519Z" fill="#0B2C83"/>
</svg>
