<svg width="22" height="19" viewBox="0 0 22 19" fill="none" xmlns="http://www.w3.org/2000/svg">
<path d="M0.535408 17.2492C0.44065 17.414 0.387947 17.5896 0.381842 17.7609C0.375737 17.9321 0.41641 18.0938 0.500362 18.2321C0.584313 18.3704 0.709024 18.4811 0.863752 18.5546C1.01848 18.6282 1.19859 18.6625 1.38857 18.6545L19.9497 17.9147C20.164 17.9065 20.3833 17.8448 20.5839 17.7363C20.7845 17.6278 20.9587 17.4767 21.0876 17.2993C21.2164 17.122 21.295 16.9252 21.3147 16.7304C21.3345 16.5356 21.2947 16.3501 21.1996 16.1942L11.8584 0.807809C11.7631 0.652589 11.6166 0.532693 11.4347 0.461013C11.2528 0.389334 11.0425 0.368583 10.8262 0.400993C10.6099 0.433403 10.3959 0.517748 10.2072 0.644956C10.0186 0.772164 9.86234 0.937423 9.75536 1.12296L0.535408 17.2492Z" fill="black"/>
</svg>
