<svg width="315" height="541" viewBox="0 0 315 541" fill="none" xmlns="http://www.w3.org/2000/svg">
<g filter="url(#filter0_d_906_3460)">
<path d="M139 515.364L150.621 530.144C150.983 530.605 151.662 530.657 152.09 530.257L177 507" stroke="white" stroke-opacity="0.7" stroke-width="5" stroke-linecap="round" shape-rendering="crispEdges"/>
</g>
<path d="M40.224 354.568L31.712 365H30.432L38.88 354.728V354.648H27.04V353.8H40.224V354.568ZM49.051 365.16H48.379C47.2803 365.16 46.363 365.096 45.627 364.968C44.9017 364.84 44.2617 364.611 43.707 364.28C43.1523 363.949 42.747 363.485 42.491 362.888C42.235 362.291 42.107 361.533 42.107 360.616V358.936C42.107 357.005 42.5657 355.64 43.483 354.84C44.411 354.04 45.995 353.64 48.235 353.64H48.795C50.7683 353.64 52.2243 353.859 53.163 354.296C54.1017 354.723 54.6563 355.437 54.827 356.44H53.755C53.6057 355.736 53.1417 355.24 52.363 354.952C51.5843 354.653 50.3097 354.504 48.539 354.504C47.0777 354.504 45.9683 354.648 45.211 354.936C44.4537 355.213 43.915 355.683 43.595 356.344C43.2857 357.005 43.131 357.971 43.131 359.24V359.8H43.211C43.4457 359.139 43.9843 358.659 44.827 358.36C45.6803 358.051 47.0083 357.896 48.811 357.896C50.9123 357.896 52.459 358.141 53.451 358.632C54.443 359.112 54.939 360.008 54.939 361.32V361.72C54.939 363.011 54.4537 363.907 53.483 364.408C52.523 364.909 51.0457 365.16 49.051 365.16ZM48.635 364.312C50.491 364.312 51.835 364.125 52.667 363.752C53.4883 363.368 53.899 362.717 53.899 361.8V361.272C53.899 360.355 53.4883 359.709 52.667 359.336C51.8563 358.952 50.5123 358.76 48.635 358.76C46.747 358.76 45.3923 358.952 44.571 359.336C43.7497 359.709 43.339 360.355 43.339 361.272V361.8C43.339 362.707 43.7497 363.352 44.571 363.736C45.3923 364.12 46.747 364.312 48.635 364.312ZM60.6801 359.32H60.4721C59.2775 359.32 58.4028 359.112 57.8481 358.696C57.3041 358.269 57.0321 357.581 57.0321 356.632V356.328C57.0321 355.379 57.3041 354.696 57.8481 354.28C58.4028 353.853 59.2775 353.64 60.4721 353.64H60.6801C61.8748 353.64 62.7441 353.853 63.2881 354.28C63.8428 354.696 64.1201 355.379 64.1201 356.328V356.632C64.1201 357.581 63.8428 358.269 63.2881 358.696C62.7441 359.112 61.8748 359.32 60.6801 359.32ZM68.4241 353.8L61.5761 365H60.6961L67.5441 353.8H68.4241ZM58.5681 358.104C58.9628 358.392 59.6295 358.536 60.5681 358.536C61.5068 358.536 62.1735 358.392 62.5681 358.104C62.9735 357.805 63.1761 357.304 63.1761 356.6V356.36C63.1761 355.656 62.9735 355.16 62.5681 354.872C62.1735 354.573 61.5068 354.424 60.5681 354.424C59.6295 354.424 58.9628 354.573 58.5681 354.872C58.1735 355.16 57.9761 355.656 57.9761 356.36V356.6C57.9761 357.304 58.1735 357.805 58.5681 358.104ZM68.6321 365.16H68.4241C67.2295 365.16 66.3601 364.952 65.8161 364.536C65.2721 364.109 65.0001 363.421 65.0001 362.472V362.184C65.0001 361.224 65.2721 360.536 65.8161 360.12C66.3601 359.693 67.2295 359.48 68.4241 359.48H68.6321C69.8268 359.48 70.6961 359.693 71.2401 360.12C71.7948 360.547 72.0721 361.235 72.0721 362.184V362.472C72.0721 363.421 71.8001 364.109 71.2561 364.536C70.7121 364.952 69.8375 365.16 68.6321 365.16ZM66.5201 363.944C66.9255 364.232 67.5975 364.376 68.5361 364.376C69.4748 364.376 70.1415 364.232 70.5361 363.944C70.9415 363.645 71.1441 363.144 71.1441 362.44V362.2C71.1441 361.496 70.9415 361 70.5361 360.712C70.1415 360.413 69.4748 360.264 68.5361 360.264C67.5975 360.264 66.9255 360.413 66.5201 360.712C66.1255 361 65.9281 361.496 65.9281 362.2V362.44C65.9281 363.144 66.1255 363.645 66.5201 363.944ZM79.4073 353.8H80.4153V354.904H79.4073V353.8ZM79.4073 356.52H80.4153V365H79.4073V356.52ZM87.9729 365.16H87.8129C87.1195 365.16 86.4955 365.123 85.9409 365.048C85.3969 364.984 84.8849 364.872 84.4049 364.712C83.9355 364.541 83.5515 364.307 83.2529 364.008C82.9649 363.709 82.7782 363.341 82.6929 362.904H83.7649C84.0635 363.875 85.4449 364.36 87.9089 364.36C89.3169 364.36 90.3462 364.232 90.9969 363.976C91.6475 363.72 91.9835 363.251 92.0049 362.568V362.504C92.0049 361.981 91.8075 361.635 91.4129 361.464C91.0182 361.283 90.3142 361.171 89.3009 361.128L86.2769 361.016C85.1035 360.973 84.2662 360.792 83.7649 360.472C83.2742 360.152 83.0289 359.651 83.0289 358.968V358.76C83.0289 357.16 84.5382 356.36 87.5569 356.36H87.7489C89.1889 356.36 90.3195 356.536 91.1409 356.888C91.9622 357.229 92.4635 357.8 92.6449 358.6H91.5729C91.4022 358.099 91.0075 357.736 90.3889 357.512C89.7702 357.277 88.8529 357.16 87.6369 357.16C86.3675 357.16 85.4502 357.277 84.8849 357.512C84.3302 357.736 84.0475 358.157 84.0369 358.776V358.84C84.0369 359.373 84.2502 359.725 84.6769 359.896C85.0929 360.045 85.7862 360.147 86.7569 360.2L89.7809 360.312C90.9435 360.355 91.7702 360.541 92.2609 360.872C92.7622 361.192 93.0129 361.688 93.0129 362.36V362.552C93.0129 363.064 92.8849 363.496 92.6289 363.848C92.3835 364.189 92.0209 364.456 91.5409 364.648C91.0715 364.829 90.5489 364.957 89.9729 365.032C89.4075 365.117 88.7409 365.16 87.9729 365.16ZM105.59 365.16H104.982C101.654 365.16 99.9898 363.843 99.9898 361.208V360.36C99.9898 357.693 101.654 356.36 104.982 356.36H105.59C108.299 356.36 109.899 357.192 110.39 358.856H109.35C109.094 358.227 108.624 357.795 107.942 357.56C107.27 357.325 106.395 357.208 105.318 357.208C103.782 357.208 102.678 357.448 102.006 357.928C101.334 358.408 100.998 359.272 100.998 360.52V361C100.998 362.248 101.334 363.112 102.006 363.592C102.678 364.072 103.782 364.312 105.318 364.312C106.395 364.312 107.27 364.195 107.942 363.96C108.624 363.725 109.094 363.293 109.35 362.664H110.39C109.899 364.328 108.299 365.16 105.59 365.16ZM117.941 365.16H117.029C113.701 365.16 112.037 363.843 112.037 361.208V360.36C112.037 357.693 113.701 356.36 117.029 356.36H117.941C121.269 356.36 122.933 357.693 122.933 360.36V361.208C122.933 363.843 121.269 365.16 117.941 365.16ZM114.085 363.592C114.778 364.072 115.914 364.312 117.493 364.312C119.071 364.312 120.202 364.072 120.885 363.592C121.578 363.112 121.925 362.248 121.925 361V360.52C121.925 359.272 121.578 358.408 120.885 357.928C120.202 357.448 119.071 357.208 117.493 357.208C115.914 357.208 114.778 357.448 114.085 357.928C113.391 358.408 113.045 359.272 113.045 360.52V361C113.045 362.248 113.391 363.112 114.085 363.592ZM141.684 359.64V365H140.676V359.832C140.676 358.083 139.652 357.208 137.604 357.208C135.161 357.208 133.94 358.275 133.94 360.408V365H132.932V359.832C132.932 358.083 131.908 357.208 129.86 357.208C127.428 357.208 126.212 358.275 126.212 360.408V365H125.204V356.52H126.212V358.12H126.276C126.863 356.947 128.111 356.36 130.02 356.36C132.004 356.36 133.236 356.995 133.716 358.264H133.796C134.393 356.995 135.711 356.36 137.748 356.36C140.372 356.36 141.684 357.453 141.684 359.64ZM144.22 367.72V356.52H145.228V358.168H145.292C145.857 356.963 147.281 356.36 149.564 356.36H150.236C153.489 356.36 155.116 357.677 155.116 360.312V361.16C155.116 363.827 153.489 365.16 150.236 365.16H149.564C147.281 365.16 145.857 364.557 145.292 363.352H145.228V367.72H144.22ZM149.644 357.208C148.097 357.208 146.972 357.437 146.268 357.896C145.574 358.344 145.228 359.123 145.228 360.232V361C145.228 362.248 145.569 363.112 146.252 363.592C146.945 364.072 148.076 364.312 149.644 364.312C151.222 364.312 152.358 364.072 153.052 363.592C153.756 363.112 154.108 362.248 154.108 361V360.52C154.108 359.272 153.756 358.408 153.052 357.928C152.358 357.448 151.222 357.208 149.644 357.208ZM158.4 353.8V365H157.392V353.8H158.4ZM169.989 362.712H171.029C170.539 364.344 168.939 365.16 166.229 365.16H165.669C162.341 365.16 160.677 363.843 160.677 361.208V360.36C160.677 357.693 162.341 356.36 165.669 356.36H166.213C169.541 356.36 171.205 357.693 171.205 360.36V360.952H161.685V361.032C161.685 362.269 162.021 363.133 162.693 363.624C163.365 364.104 164.453 364.344 165.957 364.344C167.099 364.344 167.989 364.232 168.629 364.008C169.269 363.773 169.723 363.341 169.989 362.712ZM169.157 357.864C168.475 357.384 167.408 357.144 165.957 357.144C164.507 357.144 163.44 357.373 162.757 357.832C162.085 358.28 161.728 359.069 161.685 360.2H170.197V360.136C170.197 359.101 169.851 358.344 169.157 357.864ZM179.616 364.184V365H178.672C177.339 365 176.411 364.792 175.888 364.376C175.365 363.949 175.104 363.144 175.104 361.96V357.336H172.288V356.52H175.104V353.8H176.112V356.52H179.616V357.336H176.112V361.96C176.112 362.877 176.315 363.48 176.72 363.768C177.125 364.045 177.835 364.184 178.848 364.184H179.616ZM190.286 362.712H191.326C190.835 364.344 189.235 365.16 186.526 365.16H185.966C182.638 365.16 180.974 363.843 180.974 361.208V360.36C180.974 357.693 182.638 356.36 185.966 356.36H186.51C189.838 356.36 191.502 357.693 191.502 360.36V360.952H181.982V361.032C181.982 362.269 182.318 363.133 182.99 363.624C183.662 364.104 184.75 364.344 186.254 364.344C187.395 364.344 188.286 364.232 188.926 364.008C189.566 363.773 190.019 363.341 190.286 362.712ZM189.454 357.864C188.771 357.384 187.705 357.144 186.254 357.144C184.803 357.144 183.737 357.373 183.054 357.832C182.382 358.28 182.025 359.069 181.982 360.2H190.494V360.136C190.494 359.101 190.147 358.344 189.454 357.864Z" fill="black"/>
<rect x="25.5" y="323.5" width="265" height="13" rx="6.5" fill="white" stroke="#020202"/>
<rect x="25.5" y="323.5" width="182" height="13" rx="6.5" fill="#9DCEFF" stroke="#E0E6FF"/>
<path d="M36.926 304.18H34.838C32.126 304.18 30.188 303.73 29.024 302.83C27.872 301.93 27.296 300.484 27.296 298.492V296.908C27.296 294.916 27.872 293.47 29.024 292.57C30.188 291.67 32.126 291.22 34.838 291.22H36.926C39.194 291.22 40.904 291.526 42.056 292.138C43.22 292.75 43.952 293.758 44.252 295.162H42.524C42.248 294.274 41.66 293.626 40.76 293.218C39.872 292.81 38.456 292.606 36.512 292.606H35.252C33.968 292.606 32.912 292.696 32.084 292.876C31.268 293.056 30.632 293.35 30.176 293.758C29.72 294.154 29.402 294.628 29.222 295.18C29.054 295.732 28.97 296.434 28.97 297.286V298.114C28.97 298.966 29.054 299.668 29.222 300.22C29.402 300.772 29.72 301.252 30.176 301.66C30.632 302.056 31.268 302.344 32.084 302.524C32.912 302.704 33.968 302.794 35.252 302.794H36.512C38.456 302.794 39.872 302.59 40.76 302.182C41.66 301.774 42.248 301.126 42.524 300.238H44.252C43.952 301.642 43.22 302.65 42.056 303.262C40.904 303.874 39.194 304.18 36.926 304.18ZM48.9861 298.69V304H47.3301V291.4H57.6621C59.4741 291.4 60.7521 291.658 61.4961 292.174C62.2401 292.678 62.6121 293.476 62.6121 294.568V295.036C62.6121 295.912 62.4021 296.578 61.9821 297.034C61.5741 297.478 60.9621 297.748 60.1461 297.844V297.916C61.0101 298.024 61.6341 298.288 62.0181 298.708C62.4141 299.116 62.6121 299.794 62.6121 300.742V304H60.9561V301.066C60.9561 300.094 60.6921 299.458 60.1641 299.158C59.6481 298.846 58.5861 298.69 56.9781 298.69H48.9861ZM56.9781 292.786H48.9861V297.304H57.1941C58.6101 297.304 59.5881 297.154 60.1281 296.854C60.6801 296.542 60.9561 295.972 60.9561 295.144V294.946C60.9561 294.106 60.6741 293.536 60.1101 293.236C59.5461 292.936 58.5021 292.786 56.9781 292.786ZM67.6541 291.4V304H65.9981V291.4H67.6541ZM80.3967 304.18H78.3087C75.5967 304.18 73.6587 303.73 72.4947 302.83C71.3427 301.93 70.7667 300.484 70.7667 298.492V296.908C70.7667 294.916 71.3427 293.47 72.4947 292.57C73.6587 291.67 75.5967 291.22 78.3087 291.22H80.3967C82.6647 291.22 84.3747 291.526 85.5267 292.138C86.6907 292.75 87.4227 293.758 87.7227 295.162H85.9947C85.7187 294.274 85.1307 293.626 84.2307 293.218C83.3427 292.81 81.9267 292.606 79.9827 292.606H78.7227C77.4387 292.606 76.3827 292.696 75.5547 292.876C74.7387 293.056 74.1027 293.35 73.6467 293.758C73.1907 294.154 72.8727 294.628 72.6927 295.18C72.5247 295.732 72.4407 296.434 72.4407 297.286V298.114C72.4407 298.966 72.5247 299.668 72.6927 300.22C72.8727 300.772 73.1907 301.252 73.6467 301.66C74.1027 302.056 74.7387 302.344 75.5547 302.524C76.3827 302.704 77.4387 302.794 78.7227 302.794H79.9827C81.9267 302.794 83.3427 302.59 84.2307 302.182C85.1307 301.774 85.7187 301.126 85.9947 300.238H87.7227C87.4227 301.642 86.6907 302.65 85.5267 303.262C84.3747 303.874 82.6647 304.18 80.3967 304.18ZM92.4568 299.32V304H90.8008V291.4H92.4568V297.772H92.5288L104.679 291.4H107.487L97.7668 296.512L107.685 304H105.129L96.3088 297.322H96.2188L92.4568 299.32ZM123.627 302.614V304H109.803V291.4H123.627V292.786H111.459V296.998H123.627V298.384H111.459V302.614H123.627ZM134.177 292.858V304H132.521V292.858H125.573V291.4H141.125V292.858H134.177ZM143.091 304H140.877V301.984H143.091V304ZM148.142 304H145.136V302.614H147.458C149.342 302.614 150.656 302.326 151.4 301.75C152.144 301.174 152.516 300.292 152.516 299.104V291.4H154.172V299.194C154.172 300.802 153.698 302.008 152.75 302.812C151.802 303.604 150.266 304 148.142 304ZM159.201 299.32V304H157.545V291.4H167.769C169.557 291.4 170.847 291.706 171.639 292.318C172.431 292.918 172.827 293.89 172.827 295.234V295.576C172.827 296.872 172.431 297.82 171.639 298.42C170.859 299.02 169.569 299.32 167.769 299.32H159.201ZM167.301 292.786H159.201V297.934H167.301C168.777 297.934 169.791 297.754 170.343 297.394C170.895 297.022 171.171 296.386 171.171 295.486V295.234C171.171 294.322 170.889 293.686 170.325 293.326C169.773 292.966 168.765 292.786 167.301 292.786ZM184.584 304.18H182.496C179.76 304.18 177.804 303.736 176.628 302.848C175.464 301.948 174.882 300.508 174.882 298.528V296.854C174.882 294.874 175.464 293.44 176.628 292.552C177.792 291.664 179.748 291.22 182.496 291.22H184.584C186.828 291.22 188.55 291.526 189.75 292.138C190.95 292.75 191.706 293.74 192.018 295.108H190.182C189.918 294.208 189.312 293.566 188.364 293.182C187.428 292.798 186.03 292.606 184.17 292.606H182.91C181.614 292.606 180.546 292.696 179.706 292.876C178.878 293.044 178.23 293.326 177.762 293.722C177.306 294.118 176.988 294.592 176.808 295.144C176.64 295.684 176.556 296.38 176.556 297.232V298.168C176.556 299.008 176.64 299.698 176.808 300.238C176.988 300.778 177.306 301.252 177.762 301.66C178.23 302.056 178.878 302.344 179.706 302.524C180.546 302.704 181.614 302.794 182.91 302.794H184.17C185.826 302.794 187.122 302.632 188.058 302.308C188.994 301.984 189.636 301.528 189.984 300.94C190.332 300.352 190.506 299.56 190.506 298.564H183.072V297.178H192.162V298.672C192.162 300.58 191.568 301.978 190.38 302.866C189.204 303.742 187.272 304.18 184.584 304.18Z" fill="#180303"/>
<path d="M74.1006 159.274V159.742C74.1006 160.882 73.7346 161.71 73.0026 162.226C72.2706 162.742 70.9866 163 69.1506 163H58.7286V150.4H68.7186C70.6026 150.4 71.9166 150.646 72.6606 151.138C73.4046 151.63 73.7766 152.422 73.7766 153.514V153.802C73.7766 155.386 73.0626 156.268 71.6346 156.448V156.52C73.2666 156.76 74.0886 157.678 74.1006 159.274ZM68.5026 151.786H60.3846V155.836H68.5026C69.8826 155.836 70.8306 155.71 71.3466 155.458C71.8626 155.206 72.1206 154.708 72.1206 153.964V153.784C72.1206 153.028 71.8566 152.506 71.3286 152.218C70.8006 151.93 69.8586 151.786 68.5026 151.786ZM68.5746 157.204H60.3846V161.614H68.7006C70.1286 161.614 71.1066 161.464 71.6346 161.164C72.1746 160.852 72.4446 160.27 72.4446 159.418V159.292C72.4446 158.452 72.1686 157.894 71.6166 157.618C71.0646 157.342 70.0506 157.204 68.5746 157.204ZM82.815 153.46H83.985V154.738H82.527C81.951 154.738 81.441 154.78 80.997 154.864C80.565 154.936 80.151 155.074 79.755 155.278C79.359 155.47 79.053 155.764 78.837 156.16C78.621 156.556 78.513 157.042 78.513 157.618V163H76.947V153.46H78.513V155.26H78.585C79.101 154.06 80.511 153.46 82.815 153.46ZM91.9494 163.18H90.8874C88.9794 163.18 87.5394 162.826 86.5674 162.118C85.6074 161.398 85.1274 160.264 85.1274 158.716V157.78C85.1274 156.22 85.6074 155.08 86.5674 154.36C87.5274 153.64 88.9674 153.28 90.8874 153.28H91.9494C93.8694 153.28 95.3034 153.64 96.2514 154.36C97.2114 155.08 97.6914 156.22 97.6914 157.78V158.716C97.6914 160.264 97.2114 161.398 96.2514 162.118C95.3034 162.826 93.8694 163.18 91.9494 163.18ZM91.4274 161.902C93.0954 161.902 94.2954 161.662 95.0274 161.182C95.7714 160.69 96.1434 159.796 96.1434 158.5V157.96C96.1434 156.664 95.7714 155.776 95.0274 155.296C94.2954 154.804 93.0954 154.558 91.4274 154.558C89.7354 154.558 88.5174 154.804 87.7734 155.296C87.0414 155.776 86.6754 156.664 86.6754 157.96V158.5C86.6754 159.796 87.0414 160.69 87.7734 161.182C88.5174 161.662 89.7354 161.902 91.4274 161.902ZM118.643 153.46L114.917 163H112.811L108.725 154.792L104.657 163H102.371L98.6988 153.46H100.409L103.631 161.686H103.721L107.789 153.46H109.715L113.783 161.686H113.873L117.095 153.46H118.643ZM125.771 163.18H125.519C123.779 163.18 122.411 162.988 121.415 162.604C120.431 162.22 119.837 161.548 119.633 160.588H121.289C121.625 161.536 123.089 162.01 125.681 162.01C127.205 162.01 128.297 161.884 128.957 161.632C129.629 161.38 129.971 160.918 129.983 160.246V160.174C129.983 159.658 129.779 159.31 129.371 159.13C128.963 158.95 128.219 158.842 127.139 158.806L123.719 158.68C122.375 158.632 121.415 158.422 120.839 158.05C120.275 157.678 119.993 157.09 119.993 156.286V156.052C119.993 155.044 120.443 154.33 121.343 153.91C122.255 153.49 123.575 153.28 125.303 153.28H125.519C127.199 153.28 128.495 153.484 129.407 153.892C130.319 154.288 130.901 154.942 131.153 155.854H129.497C129.305 155.362 128.885 155.008 128.237 154.792C127.589 154.564 126.635 154.45 125.375 154.45C123.995 154.45 123.011 154.564 122.423 154.792C121.847 155.02 121.553 155.44 121.541 156.052V156.106C121.541 156.598 121.745 156.94 122.153 157.132C122.573 157.312 123.323 157.426 124.403 157.474L127.823 157.6C129.167 157.648 130.121 157.858 130.685 158.23C131.249 158.602 131.531 159.19 131.531 159.994V160.192C131.531 161.308 131.039 162.088 130.055 162.532C129.071 162.964 127.643 163.18 125.771 163.18ZM143.641 160.354H145.243C144.967 161.338 144.373 162.058 143.461 162.514C142.549 162.958 141.289 163.18 139.681 163.18H139.069C137.149 163.18 135.709 162.826 134.749 162.118C133.801 161.398 133.327 160.264 133.327 158.716V157.78C133.327 156.22 133.801 155.08 134.749 154.36C135.709 153.64 137.149 153.28 139.069 153.28H139.645C141.565 153.28 143.005 153.64 143.965 154.36C144.925 155.08 145.405 156.22 145.405 157.78V158.554H134.875V158.572C134.875 159.868 135.229 160.762 135.937 161.254C136.645 161.734 137.791 161.974 139.375 161.974C140.623 161.974 141.571 161.86 142.219 161.632C142.879 161.404 143.353 160.978 143.641 160.354ZM142.741 155.134C142.009 154.654 140.887 154.414 139.375 154.414C137.863 154.414 136.753 154.636 136.045 155.08C135.337 155.524 134.947 156.322 134.875 157.474H143.857V157.402C143.857 156.358 143.485 155.602 142.741 155.134ZM155.32 154.666H152.314V153.46H155.32V150.4H156.868V153.46H160.702V154.666H156.868V159.4C156.868 160.396 157.084 161.044 157.516 161.344C157.96 161.644 158.734 161.794 159.838 161.794H160.702V163H159.46C157.924 163 156.85 162.754 156.238 162.262C155.626 161.758 155.32 160.84 155.32 159.508V154.666ZM168.942 163.18H167.88C165.972 163.18 164.532 162.826 163.56 162.118C162.6 161.398 162.12 160.264 162.12 158.716V157.78C162.12 156.22 162.6 155.08 163.56 154.36C164.52 153.64 165.96 153.28 167.88 153.28H168.942C170.862 153.28 172.296 153.64 173.244 154.36C174.204 155.08 174.684 156.22 174.684 157.78V158.716C174.684 160.264 174.204 161.398 173.244 162.118C172.296 162.826 170.862 163.18 168.942 163.18ZM168.42 161.902C170.088 161.902 171.288 161.662 172.02 161.182C172.764 160.69 173.136 159.796 173.136 158.5V157.96C173.136 156.664 172.764 155.776 172.02 155.296C171.288 154.804 170.088 154.558 168.42 154.558C166.728 154.558 165.51 154.804 164.766 155.296C164.034 155.776 163.668 156.664 163.668 157.96V158.5C163.668 159.796 164.034 160.69 164.766 161.182C165.51 161.662 166.728 161.902 168.42 161.902ZM182.534 159.418V153.46H184.082V159.148C184.082 159.7 184.178 160.168 184.37 160.552C184.562 160.936 184.838 161.224 185.198 161.416C185.558 161.596 185.924 161.722 186.296 161.794C186.68 161.866 187.118 161.902 187.61 161.902C190.37 161.902 191.75 160.816 191.75 158.644V153.46H193.316V163H191.75V161.182H191.678C191.006 162.514 189.53 163.18 187.25 163.18C184.106 163.18 182.534 161.926 182.534 159.418ZM196.145 166.06V153.46H197.693V155.278H197.765C198.401 153.946 199.985 153.28 202.517 153.28H203.201C206.873 153.28 208.709 154.768 208.709 157.744V158.68C208.709 160.24 208.241 161.38 207.305 162.1C206.381 162.82 205.013 163.18 203.201 163.18H202.517C199.985 163.18 198.401 162.514 197.765 161.182H197.693V166.06H196.145ZM202.409 154.558C200.741 154.558 199.535 154.786 198.791 155.242C198.059 155.698 197.693 156.52 197.693 157.708V158.5C197.693 159.796 198.059 160.69 198.791 161.182C199.535 161.662 200.741 161.902 202.409 161.902C204.089 161.902 205.301 161.662 206.045 161.182C206.789 160.69 207.161 159.796 207.161 158.5V157.96C207.161 156.664 206.789 155.776 206.045 155.296C205.301 154.804 204.089 154.558 202.409 154.558ZM212.616 150.4V163H211.05V150.4H212.616ZM221.781 163.18H220.719C218.811 163.18 217.371 162.826 216.399 162.118C215.439 161.398 214.959 160.264 214.959 158.716V157.78C214.959 156.22 215.439 155.08 216.399 154.36C217.359 153.64 218.799 153.28 220.719 153.28H221.781C223.701 153.28 225.135 153.64 226.083 154.36C227.043 155.08 227.523 156.22 227.523 157.78V158.716C227.523 160.264 227.043 161.398 226.083 162.118C225.135 162.826 223.701 163.18 221.781 163.18ZM221.259 161.902C222.927 161.902 224.127 161.662 224.859 161.182C225.603 160.69 225.975 159.796 225.975 158.5V157.96C225.975 156.664 225.603 155.776 224.859 155.296C224.127 154.804 222.927 154.558 221.259 154.558C219.567 154.558 218.349 154.804 217.605 155.296C216.873 155.776 216.507 156.664 216.507 157.96V158.5C216.507 159.796 216.873 160.69 217.605 161.182C218.349 161.662 219.567 161.902 221.259 161.902ZM241.001 157.06V163H239.453V160.93H239.381C239.117 161.59 238.565 162.136 237.725 162.568C236.885 162.988 235.709 163.198 234.197 163.198C231.029 163.198 229.445 162.202 229.445 160.21V160.084C229.457 159.196 229.733 158.536 230.273 158.104C230.825 157.672 231.665 157.438 232.793 157.402L239.453 157.168V157.042C239.453 156.034 239.135 155.344 238.499 154.972C237.863 154.6 236.843 154.414 235.439 154.414C234.347 154.414 233.495 154.54 232.883 154.792C232.271 155.044 231.833 155.494 231.569 156.142H229.985C230.249 155.182 230.801 154.468 231.641 154C232.481 153.52 233.711 153.28 235.331 153.28H235.781C237.581 153.28 238.901 153.568 239.741 154.144C240.581 154.72 241.001 155.692 241.001 157.06ZM231.011 160.066V160.156C231.011 161.44 232.187 162.082 234.539 162.082C236.051 162.082 237.245 161.806 238.121 161.254C239.009 160.69 239.453 159.868 239.453 158.788V158.23L233.261 158.446C232.481 158.47 231.911 158.608 231.551 158.86C231.191 159.112 231.011 159.514 231.011 160.066ZM255.684 150.4V163H254.136V161.182H254.064C253.428 162.514 251.844 163.18 249.312 163.18H248.628C244.956 163.18 243.12 161.692 243.12 158.716V157.78C243.12 156.22 243.582 155.08 244.506 154.36C245.442 153.64 246.816 153.28 248.628 153.28H249.312C251.844 153.28 253.428 153.946 254.064 155.278H254.136V150.4H255.684ZM249.42 161.902C251.088 161.902 252.288 161.674 253.02 161.218C253.764 160.762 254.136 159.94 254.136 158.752V157.96C254.136 156.664 253.764 155.776 253.02 155.296C252.288 154.804 251.088 154.558 249.42 154.558C247.728 154.558 246.51 154.804 245.766 155.296C245.034 155.776 244.668 156.664 244.668 157.96V158.5C244.668 159.796 245.034 160.69 245.766 161.182C246.51 161.662 247.728 161.902 249.42 161.902Z" fill="black"/>
<path d="M155.5 95C155.5 95.8284 156.172 96.5 157 96.5C157.828 96.5 158.5 95.8284 158.5 95H155.5ZM158.061 67.9393C157.475 67.3536 156.525 67.3536 155.939 67.9393L146.393 77.4853C145.808 78.0711 145.808 79.0208 146.393 79.6066C146.979 80.1924 147.929 80.1924 148.515 79.6066L157 71.1213L165.485 79.6066C166.071 80.1924 167.021 80.1924 167.607 79.6066C168.192 79.0208 168.192 78.0711 167.607 77.4853L158.061 67.9393ZM158.5 95V69H155.5V95H158.5Z" fill="#84B5FF"/>
<path d="M133 82V106C133 107.657 134.343 109 136 109H177C178.657 109 180 107.657 180 106V82" stroke="#84B5FF" stroke-width="3" stroke-linecap="round"/>
<rect x="0.5" y="0.5" width="314" height="217" rx="5.5" stroke="#1235AF" stroke-dasharray="6 6"/>
<defs>
<filter id="filter0_d_906_3460" x="131.5" y="501.5" width="53" height="38.5261" filterUnits="userSpaceOnUse" color-interpolation-filters="sRGB">
<feFlood flood-opacity="0" result="BackgroundImageFix"/>
<feColorMatrix in="SourceAlpha" type="matrix" values="0 0 0 0 0 0 0 0 0 0 0 0 0 0 0 0 0 0 127 0" result="hardAlpha"/>
<feOffset dy="2"/>
<feGaussianBlur stdDeviation="2.5"/>
<feComposite in2="hardAlpha" operator="out"/>
<feColorMatrix type="matrix" values="0 0 0 0 1 0 0 0 0 1 0 0 0 0 1 0 0 0 0.25 0"/>
<feBlend mode="normal" in2="BackgroundImageFix" result="effect1_dropShadow_906_3460"/>
<feBlend mode="normal" in="SourceGraphic" in2="effect1_dropShadow_906_3460" result="shape"/>
</filter>
</defs>
</svg>
